<svg width="64" height="67" viewBox="0 0 64 67" fill="none" xmlns="http://www.w3.org/2000/svg">
<g clip-path="url(#clip0_1_390)">
<path d="M40.8539 0C40.9899 0 41.1263 0.0300847 41.2381 0.1075C41.6892 0.419903 41.861 0.876849 41.8205 1.45883C41.7946 1.82714 41.8348 2.2007 41.805 2.56901C41.7544 3.17587 41.3034 3.61758 40.7681 3.62676C40.2328 3.63593 39.7701 3.21782 39.7234 2.59391C39.6859 2.06963 39.6288 1.5283 39.7455 1.03285C39.8039 0.786922 39.9726 0.567325 40.1473 0.349155C40.3191 0.134479 40.5789 0 40.8539 0Z" fill="url(#paint0_linear_1_390)"/>
<path d="M42.0721 36.8899C45.0505 37.0902 48.7461 37.6137 50.9418 35.5913C52.1368 34.4916 53.3162 33.3736 54.5255 32.2896C56.7872 30.2632 59.8486 29.9958 62.2826 31.5897C64.3279 32.9266 64.5819 35.2112 62.8594 36.9571C58.6134 41.2623 54.363 45.5632 50.1084 49.8598C48.2939 51.6948 45.992 52.5192 43.5877 53.0868C38.9218 54.1891 34.1768 54.4656 29.4045 54.1786C26.1926 53.9848 23.7774 54.8653 21.8288 57.1106C21.638 57.3304 21.6365 57.6541 21.8133 57.8853C22.8333 59.2118 22.7996 60.9707 21.6552 62.1871C20.4075 63.5118 19.1278 64.8068 17.8161 66.0721C17.2171 66.671 16.4075 67.0049 15.5652 67.0005C14.7228 66.9961 13.9167 66.6537 13.3239 66.0485C9.17634 61.8891 5.04697 57.7127 0.935749 53.5193C0.344049 52.9273 0.00777776 52.1228 0.000251176 51.2811C-0.00727541 50.4394 0.314553 49.6289 0.89557 49.0262C2.15278 47.6805 3.44888 46.3698 4.78386 45.094C5.71965 44.1949 6.87188 43.9629 8.07725 44.4387C8.56976 44.6339 8.85491 44.5068 9.20615 44.2027C11.7102 42.0689 14.2156 39.935 16.7455 37.8339C19.4531 35.5861 22.6324 35.0211 26.0256 35.2531C28.0449 35.3842 29.923 36.1025 31.849 36.6307C32.5166 36.799 33.2023 36.8827 33.8903 36.8797C36.2596 36.9086 38.6327 36.9531 41.0007 36.8732C41.366 36.8619 41.7233 36.8665 42.0721 36.8899ZM20.0129 55.7996C20.0399 55.8265 20.0692 55.8729 20.096 55.8458C20.3552 55.5889 20.617 55.3298 20.8814 55.0686C22.3071 53.6425 23.992 52.5887 25.9699 52.282C27.4669 52.05 29.0144 52.0946 30.5386 52.1208C34.8157 52.1942 39.0682 52.0225 43.2404 51.0158C45.1988 50.544 47.0989 49.9043 48.5777 48.4101C52.847 44.0952 57.1142 39.7777 61.3793 35.4576C62.1478 34.679 62.061 33.9817 61.1473 33.3683C59.5427 32.2935 57.4612 32.4508 55.9629 33.8271C53.3525 36.206 50.7681 38.6151 48.1668 41.0033C47.9076 41.2405 47.8039 41.4397 47.8791 41.8329C48.4312 44.7283 46.434 46.2737 44.1852 46.2356C38.3878 46.1387 32.5877 46.2029 26.789 46.2029C26.5726 46.2029 26.3561 46.2029 26.141 46.1924C25.5564 46.1426 25.1702 45.7415 25.1572 45.1884C25.1481 44.924 25.2382 44.6659 25.4093 44.4659C25.5805 44.2658 25.82 44.1386 26.08 44.1097C26.2955 44.0896 26.512 44.0848 26.7281 44.0952C32.6348 44.0952 38.5416 44.0952 44.4483 44.0952C45.4852 44.0952 45.9026 43.6483 45.865 42.6141C45.7937 40.6114 44.0841 39.0228 41.9209 39.0044C39.2916 38.9817 36.6614 38.9817 34.0303 39.0044C32.6577 39.0136 31.3552 38.7161 30.037 38.3491C28.448 37.91 26.8227 37.4761 25.1909 37.3608C22.4289 37.1681 19.8588 37.8431 17.7008 39.762C16.2751 41.0282 14.7949 42.2262 13.3394 43.4556C11.6665 44.8738 11.5669 47.4203 13.1238 48.965L20.0129 55.7996ZM14.6938 64.4494C15.1601 64.905 16.0145 64.8454 16.5003 64.4107C16.5172 64.3956 16.5337 64.3801 16.5498 64.3642C17.6943 63.2422 18.8167 62.0967 19.9378 60.9563C20.5963 60.2839 20.6001 59.6377 19.9573 58.9666C19.4181 58.4044 18.8634 57.8552 18.3151 57.3007C14.9021 53.8492 11.489 50.3976 8.07595 46.9461C7.25552 46.1164 6.70468 46.1203 5.88425 46.9461C4.78387 48.0536 3.68088 49.1572 2.59346 50.274C1.95837 50.9293 1.92856 51.5467 2.53254 52.1601C6.57896 56.267 10.6327 60.3634 14.6938 64.4494Z" fill="url(#paint1_linear_1_390)"/>
<path d="M47.7187 29.6714C46.6698 30.2924 45.3306 30.1333 44.2245 29.621C43.386 29.2278 42.5681 28.7874 41.771 28.3169C41.0595 27.8948 40.4114 27.9236 39.7102 28.3405C38.9507 28.7913 38.1549 29.1715 37.3773 29.5909C36.0449 30.3078 34.7241 30.3196 33.4812 29.427C32.2382 28.5344 31.7509 27.3089 32.0114 25.7846C32.1708 24.8421 32.3056 23.8945 32.491 22.9573C32.6387 22.205 32.4702 21.5994 31.9025 21.0738C31.2027 20.4276 30.5352 19.7461 29.8625 19.0711C28.8088 18.0133 28.4368 16.7524 28.8982 15.3119C29.3648 13.8492 30.3913 13.026 31.9 12.8071C32.9005 12.663 33.8959 12.486 34.8952 12.3431C35.5083 12.2553 35.9088 11.9237 36.1719 11.3719C36.6039 10.471 37.0424 9.5749 37.4874 8.68361C38.1679 7.31915 39.2644 6.55763 40.7808 6.56549C42.2674 6.57204 43.3523 7.31653 44.0211 8.66264C44.4371 9.49757 44.8713 10.3259 45.2368 11.1832C45.5777 11.9801 46.1609 12.33 46.9775 12.4257C47.9158 12.5371 48.8542 12.6708 49.7848 12.8333C51.1755 13.0745 52.1256 13.8819 52.5973 15.2267C53.0691 16.5715 52.7956 17.8141 51.8456 18.8627C51.1185 19.6635 50.324 20.4041 49.5489 21.1603C49.0603 21.6388 48.8801 22.1722 49.0305 22.8643C49.2482 23.905 49.4063 24.9614 49.5632 26.01C49.7819 27.5025 48.9803 28.9245 47.7187 29.6714ZM34.0554 26.1896C34.0178 27.5986 35.1026 28.3391 36.2095 27.8096C37.0455 27.4098 37.8672 26.9747 38.6721 26.5068C40.0667 25.6902 41.4353 25.6797 42.8338 26.4923C43.6348 26.959 44.4669 27.3705 45.2873 27.8031C45.5318 27.947 45.8135 28.0131 46.0956 27.9925C46.3777 27.9719 46.6471 27.8657 46.8686 27.6877C47.1 27.5261 47.279 27.2989 47.383 27.0346C47.487 26.7704 47.5114 26.4809 47.4531 26.2027C47.3235 25.4307 47.2419 24.6469 47.0643 23.8879C46.6223 22.0438 47.0008 20.4958 48.4757 19.2467C49.1031 18.7224 49.6539 18.0959 50.2371 17.5152C50.4556 17.3164 50.6091 17.0551 50.6772 16.7659C50.7452 16.4768 50.7247 16.1735 50.6182 15.8965C50.4173 15.3145 49.9805 14.9869 49.37 14.9017C48.4537 14.7706 47.54 14.6212 46.6223 14.5084C45.1396 14.321 44.0522 13.5909 43.408 12.2081C43.0334 11.402 42.6148 10.6156 42.2493 9.80559C41.9447 9.1345 41.4963 8.67051 40.738 8.67706C40.0083 8.67706 39.5716 9.13974 39.2734 9.77806C38.8501 10.679 38.4111 11.5751 37.9566 12.4663C37.4071 13.5372 36.5426 14.203 35.3553 14.4023C34.3185 14.5753 33.2816 14.7496 32.2292 14.8872C31.563 14.9751 31.0795 15.2949 30.8825 15.9358C30.6855 16.5768 30.854 17.1286 31.3491 17.5952C32.0257 18.2361 32.6634 18.919 33.3451 19.5521C34.487 20.6125 34.8162 21.9035 34.5284 23.4108C34.3405 24.3913 34.1915 25.3809 34.0554 26.1896Z" fill="url(#paint2_linear_1_390)"/>
<path d="M56.58 9.68713C56.58 10.6046 54.5452 11.8157 53.752 11.3622C53.148 11.0162 52.9989 10.1433 53.5459 9.71204C54.0712 9.30233 54.6461 8.96228 55.2567 8.70016C55.8892 8.42622 56.5762 8.98197 56.58 9.68713Z" fill="url(#paint3_linear_1_390)"/>
<path d="M49.6386 2.40785C50.3375 2.76258 50.2626 3.83067 49.8356 4.48784C49.5836 4.87565 49.3327 5.23879 49.0463 5.56668C48.743 5.91665 48.2337 5.77771 47.8798 5.46707C47.6983 5.32562 47.5725 5.12341 47.525 4.89667C47.4775 4.66994 47.5114 4.4335 47.6206 4.22975C47.8688 3.72634 48.1471 3.23873 48.454 2.76961C48.7378 2.32921 49.2135 2.19027 49.6386 2.40785Z" fill="url(#paint4_linear_1_390)"/>
<path d="M25.0123 9.34143C25.4195 8.67892 26.4284 8.71622 27.0716 9.15318C27.4538 9.41277 27.8086 9.67134 28.1269 9.96927C28.3018 10.1344 28.2059 10.7688 28.0426 11.0873C27.9912 11.1846 27.9213 11.2706 27.8369 11.3404C27.7525 11.4102 27.6553 11.4625 27.5509 11.4941C27.4464 11.5258 27.3368 11.5363 27.2284 11.5249C27.1199 11.5136 27.0147 11.4807 26.9189 11.4281C26.3573 11.1609 25.8188 10.8466 25.3092 10.4883C24.9346 10.2262 24.7531 9.7648 25.0123 9.34143Z" fill="url(#paint5_linear_1_390)"/>
<path d="M33.5286 3.60884C33.9305 4.23967 34.0487 5.325 33.3516 5.59594C33.0574 5.71128 32.4858 5.64968 32.3147 5.43734C31.8556 4.86832 31.4942 4.22545 31.2454 3.53549C31.1521 3.27335 31.4243 2.71236 31.6926 2.521C31.9375 2.34536 32.5778 2.32701 32.7372 2.51051C33.0272 2.84602 33.2774 3.21451 33.5286 3.60884Z" fill="url(#paint6_linear_1_390)"/>
<path d="M57.0417 19.3654C57.0417 19.3647 57.0411 19.3641 57.0404 19.3641C56.7816 19.3642 56.5228 19.3824 56.2641 19.3641C56.0043 19.3506 55.7598 19.2364 55.5811 19.0453C55.4025 18.8542 55.3036 18.6008 55.3049 18.3378C55.3008 18.0751 55.3955 17.8206 55.57 17.6259C55.7445 17.4312 55.9857 17.3108 56.2446 17.2892C56.801 17.2538 57.3589 17.2538 57.9153 17.2892C58.1746 17.3086 58.4177 17.4245 58.5975 17.6145C58.7773 17.8046 58.881 18.0553 58.8887 18.3182C58.8977 18.8739 58.4726 19.3235 57.8777 19.3667C57.6008 19.3864 57.3213 19.3668 57.043 19.3667C57.0423 19.3667 57.0417 19.3661 57.0417 19.3654Z" fill="url(#paint7_linear_1_390)"/>
<path d="M24.3976 19.3655C24.1383 19.3655 23.8791 19.3825 23.6199 19.3655C23.359 19.3574 23.1112 19.2478 22.9282 19.0595C22.7452 18.8713 22.641 18.6189 22.6375 18.3549C22.6283 18.09 22.7204 17.8317 22.8947 17.6337C23.069 17.4358 23.312 17.3133 23.5733 17.2919C24.1343 17.2543 24.6972 17.2543 25.2582 17.2919C25.3879 17.2981 25.5151 17.3302 25.6324 17.3864C25.7498 17.4425 25.855 17.5216 25.942 17.6191C26.029 17.7166 26.0961 17.8305 26.1393 17.9543C26.1825 18.0781 26.2011 18.2094 26.194 18.3405C26.1986 18.4712 26.1776 18.6017 26.132 18.7241C26.0864 18.8466 26.0173 18.9587 25.9286 19.0539C25.8398 19.1492 25.7332 19.2256 25.6151 19.2789C25.4969 19.3321 25.3694 19.3611 25.24 19.3642C24.9588 19.3864 24.6775 19.3642 24.3976 19.3655Z" fill="url(#paint8_linear_1_390)"/>
</g>
<defs>
<linearGradient id="paint0_linear_1_390" x1="41.5959" y1="5.48157" x2="39.5927" y2="5.35192" gradientUnits="userSpaceOnUse">
<stop stop-color="#EA357E"/>
<stop offset="0.505208" stop-color="#82789B"/>
<stop offset="1" stop-color="#66D1B7"/>
</linearGradient>
<linearGradient id="paint1_linear_1_390" x1="57.1438" y1="85.636" x2="-0.602855" y2="74.5646" gradientUnits="userSpaceOnUse">
<stop stop-color="#EA357E"/>
<stop offset="0.505208" stop-color="#82789B"/>
<stop offset="1" stop-color="#66D1B7"/>
</linearGradient>
<linearGradient id="paint2_linear_1_390" x1="50.2392" y1="42.2983" x2="27.9525" y2="39.8161" gradientUnits="userSpaceOnUse">
<stop stop-color="#EA357E"/>
<stop offset="0.505208" stop-color="#82789B"/>
<stop offset="1" stop-color="#66D1B7"/>
</linearGradient>
<linearGradient id="paint3_linear_1_390" x1="56.2187" y1="12.9086" x2="53.116" y2="12.5051" gradientUnits="userSpaceOnUse">
<stop stop-color="#EA357E"/>
<stop offset="0.505208" stop-color="#82789B"/>
<stop offset="1" stop-color="#66D1B7"/>
</linearGradient>
<linearGradient id="paint4_linear_1_390" x1="50.2339" y1="7.54475" x2="47.4001" y2="7.27184" gradientUnits="userSpaceOnUse">
<stop stop-color="#EA357E"/>
<stop offset="0.505208" stop-color="#82789B"/>
<stop offset="1" stop-color="#66D1B7"/>
</linearGradient>
<linearGradient id="paint5_linear_1_390" x1="27.8634" y1="13.1254" x2="24.7906" y2="12.7676" gradientUnits="userSpaceOnUse">
<stop stop-color="#EA357E"/>
<stop offset="0.505208" stop-color="#82789B"/>
<stop offset="1" stop-color="#66D1B7"/>
</linearGradient>
<linearGradient id="paint6_linear_1_390" x1="33.8854" y1="7.32666" x2="31.1271" y2="7.05266" gradientUnits="userSpaceOnUse">
<stop stop-color="#EA357E"/>
<stop offset="0.505208" stop-color="#82789B"/>
<stop offset="1" stop-color="#66D1B7"/>
</linearGradient>
<linearGradient id="paint7_linear_1_390" x1="58.5048" y1="20.4559" x2="55.2633" y2="19.8556" gradientUnits="userSpaceOnUse">
<stop stop-color="#EA357E"/>
<stop offset="0.505208" stop-color="#82789B"/>
<stop offset="1" stop-color="#66D1B7"/>
</linearGradient>
<linearGradient id="paint8_linear_1_390" x1="25.8142" y1="20.4533" x2="22.5944" y2="19.8606" gradientUnits="userSpaceOnUse">
<stop stop-color="#EA357E"/>
<stop offset="0.505208" stop-color="#82789B"/>
<stop offset="1" stop-color="#66D1B7"/>
</linearGradient>
<clipPath id="clip0_1_390">
<rect width="64" height="67" fill="white"/>
</clipPath>
</defs>
</svg>
