<svg width="65" height="65" viewBox="0 0 65 65" fill="none" xmlns="http://www.w3.org/2000/svg">
<g clip-path="url(#clip0_1_438)">
<rect width="65" height="65" fill="white"/>
<path fill-rule="evenodd" clip-rule="evenodd" d="M60.6621 0.111924C60.5597 0.0743623 60.4573 0.0368481 60.3547 0L58.3891 0.00281058C58.3416 0.020924 58.2945 0.0403517 58.2475 0.0597745L58.2475 0.0597786L58.2474 0.0598155C58.1487 0.100595 58.05 0.14135 57.9474 0.169873C56.7326 0.494758 55.6617 1.21826 54.906 2.22464C54.1504 3.23102 53.7536 4.46211 53.7793 5.72097C53.7961 7.2372 54.4144 8.51055 55.435 9.62386L54.5399 11.0061C52.7874 13.7126 51.0444 16.4044 49.283 19.0849C49.1877 19.2295 48.8414 19.3249 48.6591 19.2758C46.9038 18.7971 45.3027 19.0849 43.804 20.1111C43.6497 20.2164 43.2824 20.1841 43.117 20.069C42.6666 19.7574 42.2398 19.4123 41.813 19.0674C41.6592 18.9431 41.5053 18.8187 41.3504 18.696C39.7059 17.3974 38.0613 16.0987 36.5836 14.9293C36.632 14.5779 36.691 14.2419 36.7482 13.9163L36.7483 13.9162C36.8669 13.2412 36.9777 12.6108 36.9692 11.981C36.9313 8.84749 33.9815 6.27692 30.9405 6.64615C27.5378 7.0575 25.1194 10.0801 25.9746 13.2446C26.3728 14.7257 25.9353 15.408 24.8418 16.0524C24.784 16.0924 24.7292 16.1365 24.6777 16.1844L19.3725 20.3652C16.1759 18.0221 13.0242 19.2351 11.503 20.9703C10.6498 21.9574 10.1638 23.2095 10.1272 24.5145C10.0907 25.8195 10.5059 27.0969 11.3026 28.1303C12.1059 29.1602 13.2439 29.8761 14.5192 30.1539C15.7945 30.4316 17.1266 30.2536 18.2846 29.6508C20.9302 28.2637 21.8218 25.6061 20.7647 22.1412L27.7748 16.6098C29.9072 18.213 32.4533 18.4994 35.0134 16.6098L42.0374 22.1608C40.62 25.4867 42.2197 28.2075 44.0647 29.3826C45.144 30.0732 46.4268 30.373 47.6998 30.2323C48.9728 30.0915 50.1594 29.5187 51.0622 28.609C53.1778 26.4765 53.1974 23.8512 51.0944 20.6067C51.1404 20.5336 51.1874 20.4581 51.2351 20.3813L51.2353 20.3809C51.3067 20.2659 51.38 20.148 51.4547 20.0311C51.9567 19.2547 52.4593 18.4788 52.962 17.7028L52.9623 17.7024L52.9626 17.7019L52.9629 17.7014L52.9632 17.7009L52.9637 17.7002L52.9644 17.6992L52.9648 17.6985L52.9655 17.6974C54.3122 15.6187 55.6588 13.5401 56.9913 11.4518C57.2703 11.0109 57.5016 10.8902 58.0456 11.0306C59.4499 11.3923 60.9397 11.19 62.1971 10.4668C63.4545 9.74363 64.3797 8.5569 64.7752 7.15998C65.1736 5.76387 65.0165 4.2675 64.3369 2.98488C63.6572 1.70226 62.5079 0.7331 61.13 0.280784C60.9729 0.225819 60.8174 0.168817 60.6621 0.111924ZM56.0169 5.58057C56.0183 3.79058 57.5843 2.22942 59.3733 2.24627L59.3761 2.24346C61.2267 2.26031 62.7661 3.84393 62.7269 5.6634C62.6876 7.48288 61.1356 8.9921 59.3326 8.96402C58.4496 8.94109 57.61 8.57531 56.9912 7.94395C56.3725 7.3126 56.0231 6.46512 56.0169 5.58057ZM33.7369 9.96462C34.3712 10.595 34.7325 11.4499 34.7428 12.3447L34.7456 12.3418C34.7293 13.2258 34.3702 14.0688 33.7443 14.6924C33.1184 15.316 32.2748 15.6713 31.392 15.6832C30.4989 15.6699 29.6467 15.306 29.0189 14.6698C28.3912 14.0335 28.038 13.1759 28.0356 12.2815C28.058 10.5083 29.5834 8.98788 31.3527 8.97525C32.2463 8.97887 33.1027 9.33424 33.7369 9.96462ZM12.3709 24.6851C12.3372 22.8951 13.8752 21.3185 15.6754 21.2974V21.2946C16.5703 21.2957 17.4287 21.6495 18.065 22.2796C18.7013 22.9096 19.0642 23.7652 19.0753 24.6612C19.0623 25.5449 18.7066 26.3888 18.0833 27.0145C17.46 27.6402 16.6181 27.9986 15.7357 28.0138C13.9327 28.025 12.4059 26.5102 12.3709 24.6851ZM44.6586 26.9695C44.0466 26.3323 43.7055 25.4821 43.7072 24.5981V24.5952C43.7297 22.7954 45.3181 21.2553 47.1001 21.2988C48.9297 21.341 50.4299 22.8698 50.4158 24.6781C50.4004 26.5186 48.8105 28.0685 46.9879 28.0138C46.1057 27.981 45.2706 27.6066 44.6586 26.9695ZM62.7223 59.394V62.7634L62.7279 62.7704H37.4329C36.5804 62.7704 36.0421 63.2295 36.0631 63.916C36.0827 64.5829 36.6001 65.0041 37.4188 65.0041H62.6662C64.0556 65.0026 65.0006 64.0676 64.9641 62.6637C64.9473 62.0162 64.9002 61.3686 64.8532 60.721L64.8531 60.7205C64.7944 59.9124 64.7356 59.1043 64.7356 58.2961C64.7356 57.279 64.8102 56.2619 64.8848 55.2448L64.8848 55.2445C64.917 54.8058 64.9492 54.3672 64.9753 53.9285V53.8583C64.9571 52.5064 64.036 51.5784 62.6901 51.5643C62.2143 51.5597 61.7386 51.5612 61.2628 51.5628C61.025 51.5636 60.7871 51.5643 60.5492 51.5643V48.1949C60.8082 48.1949 61.0617 48.1964 61.3115 48.1978H61.3124H61.3133H61.3143H61.3152C61.8063 48.2006 62.2833 48.2033 62.7602 48.1949C63.052 48.1976 63.3415 48.1418 63.6115 48.031C63.8816 47.9202 64.1269 47.7564 64.3329 47.5495C64.539 47.3425 64.7017 47.0964 64.8115 46.8256C64.9214 46.5548 64.9761 46.2648 64.9725 45.9725C64.9791 45.2856 64.9769 44.6012 64.9747 43.9176V43.9165V43.9153V43.9141V43.9112V43.9106V43.9099C64.9736 43.5678 64.9725 43.2259 64.9725 42.8839C64.9697 41.2133 64.1173 40.3569 62.4349 40.3569H39.6354C39.4484 40.3485 39.2611 40.3523 39.0746 40.3681C38.8062 40.3998 38.5592 40.5306 38.3818 40.7349C38.2045 40.9392 38.1096 41.2024 38.1156 41.473C38.1156 42.1988 38.5951 42.5961 39.491 42.5961H62.6957V45.9655H42.5067C42.2731 45.9485 42.0384 45.9537 41.8057 45.981C41.2323 46.0891 40.907 46.4499 40.8762 47.0395C40.8581 47.3102 40.9417 47.5779 41.1106 47.7901C41.2794 48.0023 41.5213 48.1437 41.7889 48.1865C41.9981 48.2067 42.2085 48.2114 42.4184 48.2006H58.2121V51.57H44.2578C44.0872 51.57 43.9164 51.5681 43.7454 51.5663H43.7451H43.7448H43.7445H43.7442C43.3325 51.5619 42.9203 51.5576 42.5095 51.5784C42.3695 51.582 42.2315 51.6133 42.1035 51.6704C41.9755 51.7275 41.8601 51.8093 41.7637 51.9111C41.6673 52.013 41.592 52.1329 41.5419 52.2639C41.4919 52.395 41.4681 52.5346 41.4721 52.6748C41.4627 52.9573 41.5633 53.2324 41.7527 53.442C41.9421 53.6515 42.2055 53.7792 42.4871 53.798C42.6263 53.8073 42.7662 53.8042 42.9062 53.8011L42.9066 53.8011C42.9765 53.7995 43.0466 53.798 43.1166 53.798H62.6887V57.1674H41.7426C41.6731 57.1674 41.6031 57.1655 41.533 57.1636C41.3925 57.1599 41.2516 57.1561 41.1131 57.1674C40.8306 57.174 40.5622 57.2923 40.3665 57.4964C40.1708 57.7005 40.0637 57.9739 40.0686 58.2568C40.0588 58.897 40.4794 59.3477 41.1384 59.394C41.2627 59.4005 41.3876 59.3984 41.5123 59.3962H41.5125H41.5127H41.5128H41.513H41.5131C41.5752 59.3951 41.6373 59.394 41.6992 59.394H62.7223ZM25.864 38.1084C33.219 38.1084 39.2294 44.1312 39.2266 51.5088C39.2266 58.9636 33.2568 64.9948 25.8767 64.9976C18.3282 64.9976 12.3697 59.0254 12.3711 51.4526C12.3725 44.0779 18.4053 38.1112 25.864 38.1084ZM36.9918 51.586C36.9848 45.4256 31.967 40.3547 25.8739 40.3406C24.397 40.3377 22.9341 40.6261 21.5686 41.1894C20.203 41.7527 18.9617 42.5798 17.9155 43.6235C16.8693 44.6673 16.0386 45.9072 15.471 47.2724C14.9034 48.6377 14.6099 50.1016 14.6073 51.5804C14.6073 57.7169 19.6966 62.771 25.8668 62.757C31.939 62.7472 37.0002 57.6678 36.9918 51.5916V51.586ZM21.8652 34.2989C19.4089 32.3433 16.6077 31.3605 13.4672 31.2861C13.2644 31.3059 13.0618 31.3232 12.8596 31.3405L12.8594 31.3405L12.8592 31.3405C12.3431 31.3846 11.8297 31.4285 11.3221 31.5122C5.38742 32.4837 0.948657 36.9706 0.128481 43.0524C-0.665057 48.9137 2.39553 54.3104 7.51146 56.8515C8.20097 57.1876 8.91703 57.466 9.65234 57.684C10.2973 57.8806 10.8889 57.4875 11.0543 56.8599C11.2114 56.2689 10.823 55.668 10.1697 55.4939C10.1103 55.4775 10.0504 55.4625 9.99037 55.4476C9.87043 55.4176 9.75048 55.3877 9.63551 55.3465C4.38779 53.4624 1.30477 47.6769 2.65911 42.2606C4.65697 34.2667 13.7995 31.0882 20.4534 36.0735C21.1488 36.5943 21.819 36.5873 22.2452 36.051C22.6714 35.5147 22.5256 34.8254 21.8652 34.2989ZM14.4763 35.9208L14.4767 35.9209L14.4768 35.9209C15.1921 36.0755 15.9074 36.2302 16.606 36.4377C17.4472 36.6904 17.7585 37.2955 17.5215 37.9708C17.2958 38.6095 16.6677 38.8131 15.8209 38.5323C12.2626 37.3418 8.64121 38.9451 7.27986 42.3103C6.73292 43.6605 6.6397 45.1523 7.0143 46.5603C7.38889 47.9682 8.21094 49.2159 9.35623 50.1147C9.60343 50.2845 9.81808 50.4976 9.98994 50.7436C10.1266 50.9521 10.1813 51.204 10.1435 51.4505C10.1057 51.697 9.97807 51.9208 9.78525 52.0787C9.30296 52.521 8.77861 52.4887 8.26127 52.1096C6.55315 50.8981 5.33387 49.115 4.82353 47.0822C3.35142 41.3514 7.62055 35.8691 13.5749 35.7217C13.8745 35.7907 14.1754 35.8557 14.4763 35.9208ZM34.75 51.4596C34.743 46.5838 30.7234 42.591 25.8304 42.591C24.6524 42.5827 23.4843 42.8081 22.3938 43.2543C21.3032 43.7005 20.3117 44.3586 19.4765 45.1906C18.6413 46.0226 17.979 47.012 17.5278 48.1018C17.0766 49.1915 16.8455 50.3599 16.8477 51.5396C16.8426 52.7191 17.0706 53.8879 17.5186 54.9787C17.9667 56.0695 18.6259 57.0607 19.4583 57.8952C20.2907 58.7296 21.2799 59.3909 22.3687 59.8407C23.4575 60.2906 24.6245 60.5202 25.8024 60.5163C30.7991 60.5191 34.757 56.5137 34.75 51.4596ZM25.7323 58.277C22.0941 58.2475 19.0727 55.1884 19.0825 51.5382C19.0999 49.7558 19.8178 48.0519 21.0809 46.7959C22.3439 45.5398 24.0503 44.8326 25.8304 44.8275C29.4714 44.8415 32.5138 47.895 32.5138 51.5312C32.5138 55.2516 29.4364 58.3093 25.7323 58.277Z" fill="url(#paint0_linear_1_438)"/>
</g>
<defs>
<linearGradient id="paint0_linear_1_438" x1="67.5" y1="33" x2="-3" y2="33" gradientUnits="userSpaceOnUse">
<stop stop-color="#EA357E"/>
<stop offset="1" stop-color="#66D1B7"/>
</linearGradient>
<clipPath id="clip0_1_438">
<rect width="65" height="65" fill="white"/>
</clipPath>
</defs>
</svg>
