<svg width="24" height="24" viewBox="0 0 24 24" fill="none" xmlns="http://www.w3.org/2000/svg">
<path fill-rule="evenodd" clip-rule="evenodd" d="M1.75618 0.0862892C0.97404 0.310315 0.276645 1.02519 0.0745706 1.81001C0.00810301 2.06825 0.000415646 3.12238 0.000415646 11.999C0.000415646 23.0302 -0.0252714 22.1832 0.327223 22.7815C0.652108 23.333 1.22482 23.7742 1.81182 23.9254C2.07005 23.9919 3.12411 23.9996 12.0002 23.9996C23.0307 23.9996 22.1837 24.0253 22.782 23.6728C23.3335 23.3479 23.7747 22.7751 23.9258 22.1881C23.9923 21.9298 24 20.8757 24 11.999C24 3.12238 23.9923 2.06825 23.9258 1.81001C23.7747 1.22297 23.3335 0.650221 22.782 0.325316C22.1833 -0.0273879 23.0357 -0.00188668 11.97 0.00181661C2.70042 0.00495738 2.0206 0.0105826 1.75618 0.0862892ZM6.00031 3.33689C6.55122 3.50354 7.08531 3.95506 7.33313 4.46372C7.50966 4.8259 7.58246 5.34131 7.51379 5.74225C7.3142 6.90743 6.25339 7.68189 5.08702 7.51383C4.62798 7.44769 4.26447 7.26646 3.90902 6.92646C3.04888 6.10381 3.03908 4.73374 3.88722 3.88554C4.43931 3.33342 5.27311 3.11694 6.00031 3.33689ZM17.2032 9.49097C17.6693 9.60938 18.4916 10.0352 18.8544 10.3461C19.519 10.9154 19.9735 11.6063 20.2348 12.4444L20.3663 12.8663L20.3668 16.6164L20.3673 20.3666H18.6095H16.8517L16.8272 17.0383C16.8 13.3395 16.8187 13.5519 16.4747 13.0494C16.2749 12.7574 16.0213 12.5484 15.667 12.3837C15.4427 12.2794 15.3332 12.2589 15.0002 12.2589C14.6672 12.2589 14.5577 12.2794 14.3333 12.3837C13.979 12.5484 13.7254 12.7574 13.5256 13.0494C13.1816 13.5519 13.2003 13.3395 13.1731 17.0383L13.1486 20.3666H11.3908H9.63306V14.9992V9.63174H11.3908H13.1486L13.1618 10.2403C13.1691 10.575 13.1938 10.8676 13.2167 10.8905C13.2411 10.9149 13.381 10.8012 13.5529 10.6174C14.0691 10.0655 14.7354 9.66573 15.4689 9.46781C15.7557 9.39042 15.9198 9.37668 16.3595 9.39323C16.656 9.40443 17.0357 9.4484 17.2032 9.49097ZM7.14873 14.9992V20.3666H5.39095H3.63317L3.62112 15.0461C3.61446 12.1197 3.61915 9.69887 3.63157 9.66634C3.64929 9.61983 4.02864 9.6098 5.4014 9.61946L7.14873 9.63174V14.9992Z" fill="white" fill-opacity="0.5"/>
</svg>
