<svg width="142" height="35" viewBox="0 0 142 35" fill="none" xmlns="http://www.w3.org/2000/svg">
<g clip-path="url(#clip0_1_271)">
<path d="M48.8188 28.042V25.8876C48.8188 25.4284 49.1051 25.1459 49.5703 25.1459H57.7654C59.4115 25.1459 60.0199 24.7927 60.0199 23.7685C60.0199 22.7443 59.5905 22.4617 57.9801 22.2852L53.3994 21.7907C49.6777 21.3669 48.4609 19.9542 48.4609 16.9168C48.4609 13.7029 50.3576 12.2549 54.4373 12.2549H62.4176C62.8828 12.2549 63.1691 12.5021 63.1691 12.9966V15.1509C63.1691 15.6101 62.8828 15.8926 62.4176 15.8926H54.5088C53.0058 15.8926 52.3259 16.2105 52.3259 17.3407C52.3259 18.2942 52.7553 18.6121 54.1152 18.7534L58.6242 19.2478C62.8112 19.7423 63.9564 21.2609 63.9564 24.2276C63.9564 27.5475 62.0955 28.819 57.6938 28.819H49.5345C49.0693 28.7836 48.8188 28.5011 48.8188 28.042Z" fill="#0E044C"/>
<path d="M75.6153 25.2872C77.5835 25.2872 78.2635 24.6515 78.2635 22.7443V21.3316L71.7146 21.9673C70.14 22.1086 69.6748 22.5677 69.6748 23.6979C69.6748 24.7574 70.4621 25.2519 71.9293 25.2519H75.6153V25.2872ZM65.7383 24.1217C65.7383 20.7665 67.0266 19.5304 71.0704 19.1065L77.333 18.5061C78.0488 18.4355 78.2993 18.0823 78.2993 17.4466C78.2993 16.2458 77.7625 15.8926 76.2237 15.8926H67.8497C67.3845 15.8926 67.0982 15.6454 67.0982 15.1509V12.9966C67.0982 12.5374 67.3845 12.2549 67.8497 12.2549H76.2952C80.5896 12.2549 82.2358 13.7382 82.2358 17.0934V28.042C82.2358 28.5011 81.9495 28.7836 81.4843 28.7836H79.0508C78.5856 28.7836 78.2993 28.5011 78.2993 28.042V26.6646C77.512 28.0773 76.331 28.7836 73.7544 28.7836H72.0367C67.9928 28.7836 65.7383 27.4416 65.7383 24.1217Z" fill="#0E044C"/>
<path d="M90.8283 28.2188L83.8141 13.1028C83.5636 12.573 83.7784 12.2551 84.3509 12.2551H87.0707C87.5001 12.2551 87.7506 12.4317 87.9296 12.8202L93.3691 24.9696L98.7728 12.8202C98.9518 12.4317 99.238 12.2551 99.6317 12.2551H102.387C102.96 12.2551 103.175 12.573 102.924 13.1028L95.8383 28.2188C95.6594 28.572 95.3731 28.7839 94.9437 28.7839H91.6871C91.3293 28.7839 91.0072 28.572 90.8283 28.2188Z" fill="#0E044C"/>
<path d="M110.833 28.2188L103.783 13.1028C103.532 12.573 103.747 12.2551 104.32 12.2551H107.039C107.469 12.2551 107.719 12.4317 107.898 12.8202L113.338 24.9696L118.742 12.8202C118.92 12.4317 119.171 12.2551 119.6 12.2551H122.356C122.929 12.2551 123.143 12.573 122.893 13.1028L115.807 28.2188C115.628 28.572 115.342 28.7839 114.912 28.7839H111.656C111.298 28.7839 111.012 28.572 110.833 28.2188Z" fill="#0E044C"/>
<path d="M127.4 33.8341V31.6797C127.4 31.2206 127.65 30.938 128.151 30.938H135.702C137.491 30.938 138.064 30.3023 138.064 28.4305V25.711C137.384 27.0177 136.131 27.7241 133.734 27.7241H131.05C126.254 27.7241 124.895 25.3931 124.895 21.1903V12.9966C124.895 12.5374 125.145 12.2549 125.646 12.2549H128.08C128.545 12.2549 128.831 12.5021 128.831 12.9966V21.6494C128.831 23.6979 129.368 24.157 131.121 24.157H135.738C137.312 24.157 138.064 23.7685 138.064 21.6494V12.9966C138.064 12.5374 138.35 12.2549 138.815 12.2549H141.249C141.714 12.2549 142 12.5021 142 12.9966V28.042C142 32.0682 140.497 34.5758 135.702 34.5758H128.151C127.686 34.5758 127.4 34.2932 127.4 33.8341Z" fill="#0E044C"/>
<path fill-rule="evenodd" clip-rule="evenodd" d="M15.2106 11.4783L19.5765 1.23613C19.827 0.671039 19.4692 0.211907 18.825 0.176589L11.8467 0C11.1668 0 10.4152 0.423814 10.1647 0.9889L5.79881 11.2311C5.54831 11.7962 5.90617 12.2906 6.58611 12.2906L13.5644 12.4672C14.2086 12.5025 14.9601 12.0434 15.2106 11.4783ZM20.8292 3.67383H32.1019C32.746 3.67383 33.426 4.16828 33.6765 4.804L36.2173 11.1965C36.4678 11.8323 36.1457 12.3267 35.5374 12.3267H24.2289C23.5847 12.3267 22.9048 11.8323 22.6543 11.1965L20.1135 4.804C19.8987 4.16828 20.185 3.67383 20.8292 3.67383ZM28.5228 30.3736L25.1588 19.7783C24.9799 19.1779 25.2304 18.3656 25.7672 17.9418L31.2067 13.633C31.7435 13.2092 32.3161 13.3504 32.495 13.9508L35.8589 24.5462C36.0379 25.1466 35.7874 25.9589 35.2506 26.3827L29.8111 30.6915C29.2743 31.1153 28.7017 30.974 28.5228 30.3736ZM17.8584 23.1689L8.76867 29.738C8.26767 30.1265 8.30345 30.6916 8.87603 31.0448L14.7808 34.7179C15.3534 35.1063 16.2122 35.071 16.7132 34.7179L25.8029 28.1487C26.304 27.7955 26.2682 27.1951 25.6956 26.842L19.7909 23.1689C19.2183 22.7804 18.3594 22.8157 17.8584 23.1689ZM3.04334 11.2307L12.1688 17.7645C12.6699 18.1177 12.9561 18.93 12.7772 19.601L11.0237 26.2408C10.8448 26.8765 10.308 27.1237 9.80695 26.7352L0.681449 20.2014C0.180441 19.8482 -0.105849 19.0359 0.0730824 18.3649L1.82661 11.7251C1.96976 11.0894 2.54234 10.8775 3.04334 11.2307Z" fill="url(#paint0_linear_1_271)"/>
</g>
<defs>
<linearGradient id="paint0_linear_1_271" x1="9.94217" y1="6.20975" x2="28.8211" y2="31.4431" gradientUnits="userSpaceOnUse">
<stop stop-color="#4DC1AD"/>
<stop offset="0.536458" stop-color="#82789B"/>
<stop offset="1" stop-color="#EA337F"/>
</linearGradient>
<clipPath id="clip0_1_271">
<rect width="142" height="35" fill="white"/>
</clipPath>
</defs>
</svg>
