<svg width="20" height="16" viewBox="0 0 20 16" fill="none" xmlns="http://www.w3.org/2000/svg">
<path d="M17.6562 0H2.34375C1.05141 0 0 1.03523 0 2.30769C0 3.50426 0.570461 4.62913 1.53582 5.33614L8.60121 10.5106C9.01953 10.817 9.50977 10.9702 10 10.9702C10.4902 10.9702 10.9805 10.817 11.3988 10.5106L18.4642 5.33613C19.4295 4.62913 20 3.50426 20 2.30769C20 1.03523 18.9486 0 17.6562 0ZM18.4375 2.30769C18.4375 3.01835 18.0987 3.68644 17.5253 4.10634L10.4663 9.27615C10.1874 9.48042 9.81262 9.48042 9.53375 9.27615L2.47466 4.10634C1.90131 3.68644 1.5625 3.01835 1.5625 2.30769C1.5625 1.88354 1.91297 1.53846 2.34375 1.53846H17.6562C18.087 1.53846 18.4375 1.88354 18.4375 2.30769ZM18.4375 7.66924C18.4375 7.4202 18.5562 7.18609 18.7571 7.03894C19.2732 6.66098 20 7.02955 20 7.66924V13.6923C20 14.9648 18.9486 16 17.6562 16H2.34375C1.05141 16 0 14.9648 0 13.6923V7.66924C0 7.02954 0.72676 6.66098 1.24285 7.03894C1.44377 7.18609 1.5625 7.4202 1.5625 7.66924V13.6923C1.5625 14.1165 1.91297 14.4615 2.34375 14.4615H17.6562C18.087 14.4615 18.4375 14.1165 18.4375 13.6923V7.66924Z" fill="url(#paint0_linear_1_118)"/>
<defs>
<linearGradient id="paint0_linear_1_118" x1="17.8571" y1="24.1818" x2="-0.509724" y2="21.6754" gradientUnits="userSpaceOnUse">
<stop stop-color="#EA357E"/>
<stop offset="0.505208" stop-color="#82789B"/>
<stop offset="1" stop-color="#66D1B7"/>
</linearGradient>
</defs>
</svg>
