<svg width="22" height="22" viewBox="0 0 22 22" fill="none" xmlns="http://www.w3.org/2000/svg">
<path fill-rule="evenodd" clip-rule="evenodd" d="M11.7435 1.09131C11.4967 1.29023 11.4281 1.59754 11.5762 1.84021C11.6929 2.03131 11.8128 2.08815 12.3523 2.20799C14.8584 2.76466 16.9576 4.19804 18.3963 6.33515C19.0019 7.23474 19.5703 8.57146 19.7561 9.53304C19.8816 10.1827 19.9931 10.3782 20.2823 10.456C20.3955 10.4864 20.4794 10.4861 20.5838 10.4549C20.7449 10.4066 20.9558 10.1917 20.995 10.0358C21.0431 9.84407 20.7373 8.62556 20.4418 7.83178C19.3819 4.98514 17.0178 2.62503 14.1407 1.54149C13.4312 1.27428 12.5475 1.04209 12.1062 1.00687C11.896 0.990104 11.858 0.998938 11.7435 1.09131ZM4.22802 2.24415C3.8162 2.3903 3.58377 2.56347 2.89368 3.23834C1.89435 4.21563 1.54882 4.61598 1.34061 5.03783C1.07644 5.57303 1.00326 5.90482 1.00013 6.58184C0.997116 7.22657 1.04627 7.61898 1.20767 8.23959C2.25271 12.2576 5.83326 16.7106 9.95377 19.117C12.9882 20.8891 15.4714 21.4344 16.9385 20.6508C17.3259 20.4439 17.5821 20.2184 18.4916 19.2836C19.2325 18.5221 19.4129 18.3143 19.5353 18.0817C19.8833 17.4202 19.8562 16.7291 19.4582 16.1195C19.3809 16.0012 18.6818 15.2699 17.9036 14.4932C16.6142 13.2064 16.4647 13.0697 16.2085 12.9435C15.6481 12.6672 15.0964 12.6672 14.5437 12.9433C14.3113 13.0595 14.1349 13.2099 13.4478 13.8775C12.9975 14.3151 12.6021 14.6732 12.5693 14.6732C12.4902 14.6732 11.9015 14.3536 11.5583 14.1243C10.2572 13.2548 8.72662 11.7345 7.86019 10.451C7.60741 10.0765 7.27296 9.47562 7.27296 9.39592C7.27296 9.36699 7.60467 9.00784 8.01008 8.5978C8.77077 7.82838 8.97862 7.56691 9.11802 7.20374C9.23355 6.90287 9.25782 6.42513 9.17262 6.13028C9.01885 5.59832 8.95893 5.52511 7.4122 3.97879C5.93697 2.50394 5.80309 2.39015 5.36684 2.2402C5.07234 2.13904 4.51892 2.14096 4.22802 2.24415ZM5.14216 3.39473C5.28512 3.46591 5.67523 3.8312 6.63453 4.79215C8.14236 6.30262 8.17625 6.35059 8.04812 6.79229C8.00985 6.92433 7.83209 7.12482 7.05642 7.91086C6.21194 8.76663 6.10686 8.88725 6.0691 9.04443C6.00699 9.30304 6.06471 9.56189 6.28794 10.0257C6.75163 10.989 7.49584 11.9847 8.60358 13.1238C9.70287 14.2543 10.7298 15.0392 11.9089 15.6504C12.4371 15.9241 12.4624 15.9328 12.6755 15.9135C12.7967 15.9025 12.9559 15.8631 13.0294 15.8259C13.1028 15.7887 13.5597 15.3653 14.0446 14.8851C14.6027 14.3324 14.9792 13.9899 15.0706 13.9517C15.2568 13.874 15.5013 13.8749 15.6598 13.9539C15.8326 14.04 18.4533 16.652 18.5468 16.8313C18.6443 17.0184 18.6429 17.302 18.5432 17.5213C18.4899 17.6387 18.1885 17.9711 17.5755 18.5887C16.7513 19.4192 16.6619 19.4971 16.3721 19.6392C15.8324 19.9038 15.3082 19.9283 14.337 19.7345C13.5743 19.5823 12.7969 19.2975 11.7786 18.7973C9.10949 17.4862 6.83444 15.5821 4.95971 13.0901C3.62173 11.3116 2.70266 9.49125 2.27573 7.77404C2.18027 7.39004 2.16889 7.27304 2.16916 6.67956C2.16971 5.63511 2.21847 5.54579 3.46491 4.30722C4.35095 3.42678 4.51869 3.30103 4.80951 3.29924C4.88598 3.29877 5.03567 3.34173 5.14216 3.39473ZM11.6331 4.70131C11.4227 4.82948 11.3431 4.96583 11.3431 5.19809C11.3431 5.3738 11.3615 5.42735 11.4603 5.53981C11.5892 5.68643 11.6862 5.73251 12.0084 5.80041C13.0198 6.01348 13.953 6.52539 14.7111 7.28293C15.4873 8.05869 15.9426 8.90649 16.2124 10.0781C16.3006 10.4611 16.4962 10.6472 16.8104 10.6469C17.0979 10.6466 17.3696 10.3809 17.3698 10.0998C17.37 9.92197 17.2088 9.26118 17.0744 8.88808C16.3133 6.77654 14.4506 5.1413 12.2896 4.68751C11.9157 4.60902 11.78 4.61188 11.6331 4.70131Z" fill="url(#paint0_linear_1_121)" stroke="url(#paint1_linear_1_121)" stroke-width="0.2"/>
<defs>
<linearGradient id="paint0_linear_1_121" x1="18.8571" y1="31.2273" x2="0.368597" y2="29.2089" gradientUnits="userSpaceOnUse">
<stop stop-color="#EA357E"/>
<stop offset="0.505208" stop-color="#82789B"/>
<stop offset="1" stop-color="#66D1B7"/>
</linearGradient>
<linearGradient id="paint1_linear_1_121" x1="17.7143" y1="21" x2="4.11134" y2="20.0241" gradientUnits="userSpaceOnUse">
<stop stop-color="#EA357E"/>
<stop offset="1" stop-color="#66D1B7"/>
</linearGradient>
</defs>
</svg>
