<svg width="112" height="84" viewBox="0 0 112 84" fill="none" xmlns="http://www.w3.org/2000/svg">
<path id="image 218 (Traced)" fill-rule="evenodd" clip-rule="evenodd" d="M110 60.1565L110 37.3129L101.005 37.3129L92.0107 37.3129L92.0107 36.0154C92.0107 33.7023 93.7071 27.9014 95.3239 24.6868C98.2791 18.811 102.57 14.3355 107.839 11.6345L109.95 10.5522L107.904 6.00035C106.779 3.4967 105.721 1.29732 105.552 1.11274C104.909 0.406875 96.5688 3.14262 91.3361 5.77556C77.8972 12.5377 69.4958 23.3263 66.251 37.9882C65.4284 41.7062 65.32 44.1139 65.1469 62.555L64.9544 83L87.4774 83L110 83L110 60.1565ZM47.0375 60.1564L47.0375 37.3129L38.0429 37.3129L29.0482 37.3129L29.0482 36.0154C29.0482 33.6575 30.7963 27.7218 32.4073 24.6119C35.5005 18.6383 39.6615 14.3076 44.8761 11.6345L46.9871 10.5521L44.9418 6.00035C43.8165 3.49669 42.7583 1.29731 42.5897 1.11274C41.9479 0.40824 33.6049 3.14306 28.3669 5.77464C14.8866 12.5468 6.89218 22.8205 3.11353 38.2266C2.51224 40.6787 2.35168 44.8403 2.19292 62.0981L1.99999 83L24.519 83L47.0375 83L47.0375 60.1564Z" stroke="url(#paint0_linear_1_219)" stroke-width="2"/>
<defs>
<linearGradient id="paint0_linear_1_219" x1="110" y1="83" x2="2" y2="1.00001" gradientUnits="userSpaceOnUse">
<stop stop-color="#EA337F"/>
<stop offset="0.489583" stop-color="#82789B"/>
<stop offset="1" stop-color="#66D1B7"/>
</linearGradient>
</defs>
</svg>
