<svg width="64" height="62" viewBox="0 0 64 62" fill="none" xmlns="http://www.w3.org/2000/svg">
<path fill-rule="evenodd" clip-rule="evenodd" d="M26.7735 20.333L34.46 2.18971C34.901 1.1887 34.271 0.375378 33.1369 0.312815L20.8511 0C19.6541 0 18.331 0.750757 17.8899 1.75177L10.2035 19.8951C9.76243 20.8961 10.3925 21.7719 11.5895 21.7719L23.8753 22.0848C25.0094 22.1473 26.3325 21.334 26.7735 20.333ZM36.6654 6.50781H56.5117C57.6458 6.50781 58.8429 7.3837 59.2839 8.50983L63.7572 19.8337C64.1982 20.9599 63.6312 21.8358 62.5601 21.8358H42.6508C41.5167 21.8358 40.3197 20.9599 39.8786 19.8337L35.4054 8.50983C35.0273 7.3837 35.5314 6.50781 36.6654 6.50781ZM50.2107 53.8045L44.2883 35.0355C43.9733 33.972 44.4144 32.533 45.3594 31.7823L54.936 24.1496C55.8811 23.3988 56.8892 23.6491 57.2042 24.7126L63.1265 43.4815C63.4416 44.5451 63.0005 45.9841 62.0555 46.7348L52.4789 54.3675C51.5338 55.1183 50.5257 54.868 50.2107 53.8045ZM31.4408 41.0418L15.4378 52.6785C14.5557 53.3667 14.6187 54.3677 15.6268 54.9934L26.0224 61.4999C27.0305 62.1881 28.5426 62.1255 29.4246 61.4999L45.4277 49.8632C46.3097 49.2376 46.2467 48.174 45.2387 47.5484L34.843 41.0418C33.8349 40.3536 32.3228 40.4162 31.4408 41.0418ZM5.35487 19.8951L21.4209 31.4693C22.3029 32.0949 22.807 33.5339 22.492 34.7226L19.4048 46.4844C19.0897 47.6106 18.1447 48.0485 17.2626 47.3603L1.1966 35.7862C0.314542 35.1605 -0.18949 33.7216 0.12553 32.5329L3.21273 20.771C3.46474 19.6449 4.47281 19.2695 5.35487 19.8951Z" fill="url(#paint0_linear_1_41)"/>
<defs>
<linearGradient id="paint0_linear_1_41" x1="17.5" y1="11.0001" x2="51.0003" y2="55.5002" gradientUnits="userSpaceOnUse">
<stop stop-color="#4DC1AD"/>
<stop offset="0.536458" stop-color="#82789B"/>
<stop offset="1" stop-color="#EA337F"/>
</linearGradient>
</defs>
</svg>
